<mxfile host="app.diagrams.net" agent="Mozilla/5.0 (Windows NT 10.0; Win64; x64) AppleWebKit/537.36 (KHTML, like Gecko) Chrome/132.0.0.0 Safari/537.36" version="26.0.11">
  <diagram name="Página-1" id="dMHvQhVj3VRbbtBWQjQE">
    <mxGraphModel dx="2453" dy="745" grid="1" gridSize="10" guides="1" tooltips="1" connect="1" arrows="1" fold="1" page="1" pageScale="1" pageWidth="827" pageHeight="1169" math="0" shadow="0">
      <root>
        <mxCell id="0" />
        <mxCell id="1" parent="0" />
        <mxCell id="3xpD1GNYhK4gNY7aqobl-21" value="INÍCIO" style="rounded=1;whiteSpace=wrap;html=1;fillColor=#dae8fc;strokeColor=#6c8ebf;" parent="1" vertex="1">
          <mxGeometry x="-1565" y="343" width="120" height="60" as="geometry" />
        </mxCell>
        <mxCell id="3xpD1GNYhK4gNY7aqobl-22" value="" style="edgeStyle=none;curved=1;rounded=0;orthogonalLoop=1;jettySize=auto;html=1;fontSize=12;startSize=8;endSize=8;" parent="1" source="3xpD1GNYhK4gNY7aqobl-23" target="3xpD1GNYhK4gNY7aqobl-28" edge="1">
          <mxGeometry relative="1" as="geometry" />
        </mxCell>
        <mxCell id="3xpD1GNYhK4gNY7aqobl-23" value="x, y, z" style="shape=parallelogram;perimeter=parallelogramPerimeter;whiteSpace=wrap;html=1;fixedSize=1;fillColor=#dae8fc;strokeColor=#6c8ebf;" parent="1" vertex="1">
          <mxGeometry x="-1565" y="444" width="120" height="60" as="geometry" />
        </mxCell>
        <mxCell id="3xpD1GNYhK4gNY7aqobl-24" value="" style="edgeStyle=none;curved=1;rounded=0;orthogonalLoop=1;jettySize=auto;html=1;fontSize=12;startSize=8;endSize=8;" parent="1" source="3xpD1GNYhK4gNY7aqobl-28" target="3xpD1GNYhK4gNY7aqobl-29" edge="1">
          <mxGeometry relative="1" as="geometry" />
        </mxCell>
        <mxCell id="3xpD1GNYhK4gNY7aqobl-25" value="Sim" style="edgeLabel;html=1;align=center;verticalAlign=middle;resizable=0;points=[];fontSize=12;labelBackgroundColor=none;" parent="3xpD1GNYhK4gNY7aqobl-24" vertex="1" connectable="0">
          <mxGeometry x="-0.1506" y="-3" relative="1" as="geometry">
            <mxPoint y="-15" as="offset" />
          </mxGeometry>
        </mxCell>
        <mxCell id="3xpD1GNYhK4gNY7aqobl-28" value="x = y E y = z" style="rhombus;whiteSpace=wrap;html=1;fillStyle=auto;shadow=0;rounded=0;fillColor=#dae8fc;strokeColor=#6c8ebf;" parent="1" vertex="1">
          <mxGeometry x="-1400" y="427" width="90" height="90" as="geometry" />
        </mxCell>
        <mxCell id="3xpD1GNYhK4gNY7aqobl-29" value="&quot;Triângulo Equilátero&quot;" style="shape=document;whiteSpace=wrap;html=1;boundedLbl=1;fillColor=#dae8fc;strokeColor=#6c8ebf;" parent="1" vertex="1">
          <mxGeometry x="-1215" y="432" width="120" height="80" as="geometry" />
        </mxCell>
        <mxCell id="3xpD1GNYhK4gNY7aqobl-30" value="" style="edgeStyle=none;curved=1;rounded=0;orthogonalLoop=1;jettySize=auto;html=1;fontSize=12;startSize=8;endSize=8;" parent="1" source="3xpD1GNYhK4gNY7aqobl-34" target="3xpD1GNYhK4gNY7aqobl-36" edge="1">
          <mxGeometry relative="1" as="geometry" />
        </mxCell>
        <mxCell id="3xpD1GNYhK4gNY7aqobl-31" value="Sim" style="edgeLabel;html=1;align=center;verticalAlign=middle;resizable=0;points=[];fontSize=12;labelBackgroundColor=none;" parent="3xpD1GNYhK4gNY7aqobl-30" vertex="1" connectable="0">
          <mxGeometry x="-0.08" y="-1" relative="1" as="geometry">
            <mxPoint y="-9" as="offset" />
          </mxGeometry>
        </mxCell>
        <mxCell id="3xpD1GNYhK4gNY7aqobl-32" value="" style="edgeStyle=none;curved=0;rounded=0;orthogonalLoop=1;jettySize=auto;html=1;fontSize=12;startSize=8;endSize=8;exitX=0.5;exitY=1;exitDx=0;exitDy=0;" parent="1" source="3xpD1GNYhK4gNY7aqobl-34" target="3xpD1GNYhK4gNY7aqobl-37" edge="1">
          <mxGeometry relative="1" as="geometry">
            <mxPoint x="-1355" y="609" as="sourcePoint" />
            <Array as="points">
              <mxPoint x="-1355" y="787" />
            </Array>
          </mxGeometry>
        </mxCell>
        <mxCell id="3xpD1GNYhK4gNY7aqobl-33" value="Não" style="edgeLabel;html=1;align=center;verticalAlign=middle;resizable=0;points=[];fontSize=12;labelBackgroundColor=none;" parent="3xpD1GNYhK4gNY7aqobl-32" vertex="1" connectable="0">
          <mxGeometry x="0.0041" y="1" relative="1" as="geometry">
            <mxPoint x="81" y="-6" as="offset" />
          </mxGeometry>
        </mxCell>
        <mxCell id="3xpD1GNYhK4gNY7aqobl-34" value="x &amp;lt;&amp;gt; y E y &amp;lt;&amp;gt; z" style="rhombus;whiteSpace=wrap;html=1;fillColor=#dae8fc;strokeColor=#6c8ebf;" parent="1" vertex="1">
          <mxGeometry x="-1400" y="583" width="90" height="90" as="geometry" />
        </mxCell>
        <mxCell id="3xpD1GNYhK4gNY7aqobl-35" value="" style="edgeStyle=none;curved=1;rounded=0;orthogonalLoop=1;jettySize=auto;html=1;fontSize=12;startSize=8;endSize=8;" parent="1" source="3xpD1GNYhK4gNY7aqobl-36" target="3xpD1GNYhK4gNY7aqobl-38" edge="1">
          <mxGeometry relative="1" as="geometry" />
        </mxCell>
        <mxCell id="3xpD1GNYhK4gNY7aqobl-36" value="&quot;Triângulo Escaleno&quot;" style="shape=document;whiteSpace=wrap;html=1;boundedLbl=1;fillColor=#dae8fc;strokeColor=#6c8ebf;" parent="1" vertex="1">
          <mxGeometry x="-1215" y="588" width="120" height="80" as="geometry" />
        </mxCell>
        <mxCell id="3xpD1GNYhK4gNY7aqobl-37" value="&quot;Triângulo Isósceles&quot;" style="shape=document;whiteSpace=wrap;html=1;boundedLbl=1;fillColor=#dae8fc;strokeColor=#6c8ebf;" parent="1" vertex="1">
          <mxGeometry x="-1215" y="747" width="120" height="80" as="geometry" />
        </mxCell>
        <mxCell id="3xpD1GNYhK4gNY7aqobl-38" value="FIM" style="rounded=1;whiteSpace=wrap;html=1;fillColor=#dae8fc;strokeColor=#6c8ebf;" parent="1" vertex="1">
          <mxGeometry x="-1035" y="598" width="120" height="60" as="geometry" />
        </mxCell>
        <mxCell id="3xpD1GNYhK4gNY7aqobl-39" value="" style="endArrow=classic;html=1;rounded=0;fontSize=12;startSize=8;endSize=8;curved=0;exitX=1;exitY=0.5;exitDx=0;exitDy=0;entryX=0.5;entryY=0;entryDx=0;entryDy=0;" parent="1" source="3xpD1GNYhK4gNY7aqobl-29" target="3xpD1GNYhK4gNY7aqobl-38" edge="1">
          <mxGeometry width="50" height="50" relative="1" as="geometry">
            <mxPoint x="-1265" y="540" as="sourcePoint" />
            <mxPoint x="-1215" y="490" as="targetPoint" />
            <Array as="points">
              <mxPoint x="-975" y="472" />
            </Array>
          </mxGeometry>
        </mxCell>
        <mxCell id="3xpD1GNYhK4gNY7aqobl-40" value="" style="endArrow=classic;html=1;rounded=0;fontSize=12;startSize=8;endSize=8;curved=0;exitX=1;exitY=0.5;exitDx=0;exitDy=0;entryX=0.5;entryY=1;entryDx=0;entryDy=0;" parent="1" source="3xpD1GNYhK4gNY7aqobl-37" target="3xpD1GNYhK4gNY7aqobl-38" edge="1">
          <mxGeometry width="50" height="50" relative="1" as="geometry">
            <mxPoint x="-1195" y="486" as="sourcePoint" />
            <mxPoint x="-1145" y="436" as="targetPoint" />
            <Array as="points">
              <mxPoint x="-975" y="787" />
            </Array>
          </mxGeometry>
        </mxCell>
        <mxCell id="3xpD1GNYhK4gNY7aqobl-41" value="" style="endArrow=classic;html=1;rounded=0;fontSize=12;startSize=8;endSize=8;curved=1;exitX=0.5;exitY=1;exitDx=0;exitDy=0;entryX=0.5;entryY=0;entryDx=0;entryDy=0;" parent="1" source="3xpD1GNYhK4gNY7aqobl-21" target="3xpD1GNYhK4gNY7aqobl-23" edge="1">
          <mxGeometry width="50" height="50" relative="1" as="geometry">
            <mxPoint x="-1270" y="543" as="sourcePoint" />
            <mxPoint x="-1220" y="493" as="targetPoint" />
          </mxGeometry>
        </mxCell>
        <mxCell id="3xpD1GNYhK4gNY7aqobl-46" value="" style="endArrow=classic;html=1;rounded=0;exitX=0.5;exitY=1;exitDx=0;exitDy=0;entryX=0.5;entryY=0;entryDx=0;entryDy=0;" parent="1" source="3xpD1GNYhK4gNY7aqobl-28" target="3xpD1GNYhK4gNY7aqobl-34" edge="1">
          <mxGeometry width="50" height="50" relative="1" as="geometry">
            <mxPoint x="-1300" y="663" as="sourcePoint" />
            <mxPoint x="-1250" y="613" as="targetPoint" />
          </mxGeometry>
        </mxCell>
        <mxCell id="kd8OlZcI2vvXdNz_fZnU-1" value="Não" style="edgeLabel;html=1;align=center;verticalAlign=middle;resizable=0;points=[];labelBackgroundColor=none;" vertex="1" connectable="0" parent="3xpD1GNYhK4gNY7aqobl-46">
          <mxGeometry x="-0.303" y="2" relative="1" as="geometry">
            <mxPoint x="13" as="offset" />
          </mxGeometry>
        </mxCell>
      </root>
    </mxGraphModel>
  </diagram>
</mxfile>
